<svg xmlns="http://www.w3.org/2000/svg" width="32" height="32" viewBox="0 0 32 32" fill="none">
  <!-- Background circle with gradient -->
  <circle cx="16" cy="16" r="16" fill="url(#gradient)"/>
  
  <!-- Book icon -->
  <path d="M8 6C8 5.44772 8.44772 5 9 5H15C15.5523 5 16 5.44772 16 6V26C16 26.5523 15.5523 27 15 27H9C8.44772 27 8 26.5523 8 26V6Z" fill="white" fill-opacity="0.9"/>
  <path d="M16 6C16 5.44772 16.4477 5 17 5H23C23.5523 5 24 5.44772 24 6V26C24 26.5523 23.5523 27 23 27H17C16.4477 27 16 26.5523 16 26V6Z" fill="white" fill-opacity="0.7"/>
  
  <!-- Bookmark ribbon -->
  <path d="M12 5V12L14 10L16 12V5H12Z" fill="#3B82F6"/>
  
  <!-- Study elements (lines representing text) -->
  <rect x="10" y="15" width="4" height="1" rx="0.5" fill="#3B82F6" fill-opacity="0.6"/>
  <rect x="10" y="17" width="3" height="1" rx="0.5" fill="#3B82F6" fill-opacity="0.4"/>
  <rect x="10" y="19" width="4" height="1" rx="0.5" fill="#3B82F6" fill-opacity="0.6"/>
  
  <rect x="18" y="15" width="4" height="1" rx="0.5" fill="#3B82F6" fill-opacity="0.4"/>
  <rect x="18" y="17" width="3" height="1" rx="0.5" fill="#3B82F6" fill-opacity="0.3"/>
  <rect x="18" y="19" width="4" height="1" rx="0.5" fill="#3B82F6" fill-opacity="0.4"/>
  
  <!-- Gradient definition -->
  <defs>
    <linearGradient id="gradient" x1="0%" y1="0%" x2="100%" y2="100%">
      <stop offset="0%" stop-color="#3B82F6"/>
      <stop offset="100%" stop-color="#1D4ED8"/>
    </linearGradient>
  </defs>
</svg>